<?xml version="1.0" encoding="UTF-8" standalone="no"?> <svg width="64" height="64" viewBox="0 0 64 64" fill="none" xmlns="http://www.w3.org/2000/svg">
<path d="M34.76 9.58997H9.58997V22.1H34.76V9.58997Z" fill="black"/>
<path d="M29 41.93H30.85C30.6208 39.9858 29.7432 38.1755 28.3589 36.7912C26.9746 35.4069 25.1643 34.5293 23.22 34.3V36.14C23.22 36.4053 23.1147 36.6596 22.9272 36.8472C22.7396 37.0347 22.4853 37.14 22.22 37.14C21.9548 37.14 21.7005 37.0347 21.5129 36.8472C21.3254 36.6596 21.22 36.4053 21.22 36.14V34.3C19.2752 34.5276 17.4639 35.4046 16.0793 36.7893C14.6946 38.1739 13.8176 39.9852 13.59 41.93H15.4C15.6653 41.93 15.9196 42.0354 16.1072 42.2229C16.2947 42.4105 16.4 42.6648 16.4 42.93C16.4 43.1953 16.2947 43.4496 16.1072 43.6372C15.9196 43.8247 15.6653 43.93 15.4 43.93H13.55C13.7793 45.8743 14.6569 47.6846 16.0412 49.0689C17.4255 50.4532 19.2358 51.3308 21.18 51.5601V49.71C21.18 49.4448 21.2854 49.1905 21.4729 49.0029C21.6605 48.8154 21.9148 48.71 22.18 48.71C22.4453 48.71 22.6996 48.8154 22.8872 49.0029C23.0747 49.1905 23.18 49.4448 23.18 49.71V51.5601C25.1243 51.3308 26.9346 50.4532 28.3189 49.0689C29.7032 47.6846 30.5808 45.8743 30.81 43.93H29C28.7348 43.93 28.4805 43.8247 28.2929 43.6372C28.1054 43.4496 28 43.1953 28 42.93C28 42.6648 28.1054 42.4105 28.2929 42.2229C28.4805 42.0354 28.7348 41.93 29 41.93ZM26.5 40.0601L19.36 47.21C19.1717 47.3984 18.9163 47.5041 18.65 47.5041C18.3837 47.5041 18.1284 47.3984 17.94 47.21C17.7517 47.0217 17.646 46.7664 17.646 46.5C17.646 46.2337 17.7517 45.9784 17.94 45.7901L25 38.6501C25.187 38.4564 25.4433 38.345 25.7124 38.3404C25.9815 38.3357 26.2414 38.4381 26.435 38.625C26.6287 38.812 26.7401 39.0683 26.7447 39.3374C26.7494 39.6065 26.647 39.8664 26.46 40.0601H26.5Z" fill="black"/>
<path d="M60 26.63H59.54V23C59.5332 22.8448 59.4927 22.693 59.4213 22.5551C59.3499 22.4171 59.2493 22.2964 59.1266 22.2013C59.0038 22.1061 58.8618 22.0388 58.7105 22.0041C58.5591 21.9693 58.402 21.9679 58.25 22V15.77C58.25 15.5048 58.1446 15.2504 57.9571 15.0629C57.7696 14.8754 57.5152 14.77 57.25 14.77C56.9848 14.77 56.7304 14.8754 56.5429 15.0629C56.3554 15.2504 56.25 15.5048 56.25 15.77V22C56.1009 21.9744 55.9481 21.9806 55.8016 22.0184C55.6551 22.0561 55.5183 22.1245 55.4002 22.219C55.2821 22.3135 55.1853 22.432 55.1163 22.5666C55.0474 22.7012 55.0077 22.8489 55 23V26.63C54.31 26.54 53.6 26.84 53.59 27.63V30.19C53.59 30.98 54.31 31.28 55 31.19V43.77C55.0051 43.9258 55.0445 44.0785 55.1153 44.2173C55.1862 44.3562 55.2868 44.4776 55.41 44.5731C55.5332 44.6686 55.6759 44.7358 55.828 44.7698C55.9801 44.8038 56.1379 44.8039 56.29 44.77V51H41.36V49.37H48.57C48.8352 49.37 49.0896 49.2646 49.2771 49.0771C49.4646 48.8896 49.57 48.6352 49.57 48.37V33C49.7209 33.0324 49.8771 33.0311 50.0275 32.9963C50.1778 32.9614 50.3186 32.8938 50.4399 32.7983C50.5612 32.7029 50.6599 32.5818 50.7291 32.4438C50.7982 32.3058 50.8361 32.1543 50.84 32V19.42C51.55 19.5 52.28 19.24 52.3 18.42V15.85C52.3 15.03 51.55 14.77 50.84 14.85V11.23C50.8332 11.0748 50.7927 10.923 50.7213 10.7851C50.6499 10.6472 50.5493 10.5264 50.4266 10.4313C50.3038 10.3361 50.1618 10.2688 50.0105 10.2341C49.8591 10.1993 49.702 10.1979 49.55 10.23V4C49.55 3.73478 49.4446 3.48043 49.2571 3.29289C49.0696 3.10536 48.8152 3 48.55 3C48.2848 3 48.0304 3.10536 47.8429 3.29289C47.6554 3.48043 47.55 3.73478 47.55 4V10.23C47.398 10.1979 47.2409 10.1993 47.0895 10.2341C46.9382 10.2688 46.7962 10.3361 46.6734 10.4313C46.5507 10.5264 46.4501 10.6472 46.3787 10.7851C46.3073 10.923 46.2668 11.0748 46.26 11.23V14.85C45.57 14.77 44.85 15.06 44.84 15.85V18.42C44.84 19.2 45.57 19.5 46.26 19.42V32C46.2663 32.1573 46.3071 32.3112 46.3797 32.4509C46.4523 32.5905 46.5548 32.7125 46.6799 32.808C46.805 32.9035 46.9497 32.9702 47.1035 33.0034C47.2574 33.0366 47.4166 33.0354 47.57 33V47.37H41.36V6.15C41.36 5.31457 41.0281 4.51335 40.4374 3.92261C39.8466 3.33187 39.0454 3 38.21 3H6.15C5.31457 3 4.51335 3.33187 3.92261 3.92261C3.33187 4.51335 3 5.31457 3 6.15V57.85C3 58.6854 3.33187 59.4866 3.92261 60.0774C4.51335 60.6681 5.31457 61 6.15 61H38.21C39.0454 61 39.8466 60.6681 40.4374 60.0774C41.0281 59.4866 41.36 58.6854 41.36 57.85V53H57.25C57.5152 53 57.7696 52.8946 57.9571 52.7071C58.1446 52.5196 58.25 52.2652 58.25 52V44.77C58.4021 44.8039 58.5599 44.8038 58.712 44.7698C58.8641 44.7358 59.0068 44.6686 59.13 44.5731C59.2532 44.4776 59.3538 44.3562 59.4247 44.2173C59.4955 44.0785 59.5349 43.9258 59.54 43.77V31.19C60.25 31.27 60.98 31.01 61 30.19V27.63C61 27.3648 60.8946 27.1104 60.7071 26.9229C60.5196 26.7354 60.2652 26.63 60 26.63ZM46.84 17.42V16.85H50.3V17.42H46.84ZM22.18 53.62C19.3465 53.6147 16.6305 52.4868 14.6269 50.4831C12.6232 48.4795 11.4953 45.7635 11.49 42.93C12.08 28.75 32.29 28.75 32.87 42.93C32.8674 45.7644 31.7402 48.4819 29.736 50.486C27.7319 52.4902 25.0144 53.6174 22.18 53.62V53.62ZM36.77 23.11C36.77 23.3752 36.6646 23.6296 36.4771 23.8171C36.2896 24.0046 36.0352 24.11 35.77 24.11H8.59C8.32478 24.11 8.07043 24.0046 7.88289 23.8171C7.69536 23.6296 7.59 23.3752 7.59 23.11V8.59C7.59 8.32478 7.69536 8.07043 7.88289 7.88289C8.07043 7.69536 8.32478 7.59 8.59 7.59H35.77C36.0352 7.59 36.2896 7.69536 36.4771 7.88289C36.6646 8.07043 36.77 8.32478 36.77 8.59V23.11ZM59 28.63V29.19H55.55V28.63H59Z" fill="black"/>
</svg>
