<?xml version="1.0" encoding="UTF-8" standalone="no"?> <svg xmlns="http://www.w3.org/2000/svg" viewBox="0 0 64 64"><title>1</title><g id="Layer_26" data-name="Layer 26"><path d="M61,34.63a1.91,1.91,0,0,0-.14-.35,1,1,0,0,0-.14-.16.94.94,0,0,0-.09-.1l-7.19-5.6-.11-.06-.17-.09a1,1,0,0,0-.22,0l-.1,0H46.7L48,17.14A1,1,0,0,0,47,16H20.18a1,1,0,0,0-1,.89L16.92,36.5h-1a1,1,0,0,0-1,.75l-1.58,6.09a1,1,0,0,0,1,1.25h5.34A4.36,4.36,0,0,0,20.22,46H4a1,1,0,0,0,0,2H34.69a1,1,0,0,0,0-2H27.56a4.36,4.36,0,0,0,.59-1.39H47A4.36,4.36,0,0,0,47.55,46H39.27a1,1,0,0,0,0,2h12a4.39,4.39,0,0,0,4.26-3.39h2.93a1,1,0,0,0,1-.82L61,35a.94.94,0,0,0,0-.14A1,1,0,0,0,61,34.63ZM21.07,18H45.87L43.73,36.5H18.93ZM16.65,38.5H43.38l-.28,4.09H28.16a4.38,4.38,0,0,0-8.53,0h-4Zm4.86,5.09a2.39,2.39,0,0,1,4.78,0h0a2.39,2.39,0,0,1-4.78,0ZM51.23,46a2.39,2.39,0,1,1,2.39-2.39A2.39,2.39,0,0,1,51.23,46Zm6.36-3.39H55.49a4.38,4.38,0,0,0-8.53,0H45.15L46.51,30.2h6l6.44,5Z"/><path d="M53.73,35.4H49.87V32a1,1,0,0,0-2,0v4.4a1,1,0,0,0,1,1h4.85a1,1,0,0,0,0-2Z"/></g></svg>